<svg width="24" height="24" viewBox="0 0 24 24" fill="none" xmlns="http://www.w3.org/2000/svg">
<mask id="mask0_17_289" style="mask-type:alpha" maskUnits="userSpaceOnUse" x="0" y="0" width="24" height="24">
<path d="M17 20H7C4 20 2 18 2 15V9C2 6 4 4 7 4H17C20 4 22 6 22 9V15C22 18 20 20 17 20Z" stroke="#17191C" stroke-width="1.5" stroke-miterlimit="10" stroke-linecap="round" stroke-linejoin="round"/>
<path d="M11.4 9.5L13.9 11C14.8 11.6 14.8 12.5 13.9 13.1L11.4 14.6C10.4 15.2 9.59998 14.7 9.59998 13.6V10.6C9.59998 9.3 10.4 8.9 11.4 9.5Z" stroke="#17191C" stroke-width="1.5" stroke-miterlimit="10" stroke-linecap="round" stroke-linejoin="round"/>
</mask>
<g mask="url(#mask0_17_289)">
<rect y="-3" width="28" height="27" fill="white"/>
</g>
</svg>
